<svg width="100" height="100" viewBox="0 0 100 100" fill="none" xmlns="http://www.w3.org/2000/svg"> <circle cx="55" cy="45" r="35" fill="url(#sunGradient)" /> <path d="M20 75C20 75 25 55 45 45C65 35 80 50 70 65C60 80 40 70 40 70L35 85C35 85 55 95 75 80C95 65 90 35 65 25C40 15 15 40 15 75H20Z" fill="url(#waveGradient)"/> <path d="M25 82C25 82 45 88 60 78" stroke="#8A2BE2" stroke-width="3" stroke-linecap="round"/> <path d="M30 89C30 89 45 93 55 85" stroke="#8A2BE2" stroke-width="3" stroke-linecap="round"/> <defs> <linearGradient id="sunGradient" x1="55" y1="10" x2="55" y2="80" gradientUnits="userSpaceOnUse"> <stop stop-color="#FF8C00" /> <stop offset="1" stop-color="#FF4500" /> </linearGradient> <linearGradient id="waveGradient" x1="15" y1="45" x2="85" y2="45" gradientUnits="userSpaceOnUse"> <stop stop-color="#D020FF" /> <stop offset="1" stop-color="#8A2BE2" /> </linearGradient> </defs> </svg>
