<svg width="512" height="512" viewBox="0 0 512 512" fill="none" xmlns="http://www.w3.org/2000/svg">
  <rect width="512" height="512" fill="#6225B5"/>

  <g transform="translate(256, 256)">
    <circle cx="0" cy="0" r="35" fill="white"/>

    <path d="M-120 -80 C-150 -20, -100 80, 0 100 C100 120, 180 60, 200 -20 C210 -80, 150 -160, 50 -180 C-50 -200, -140 -120, -120 -80 Z" stroke="white" stroke-width="12" fill="none" opacity="0.9"/>
    <path d="M-90 -60 C-110 -10, -80 60, 0 75 C80 90, 140 40, 150 -10 C160 -60, 110 -110, 40 -125 C-30 -140, -100 -90, -90 -60 Z" stroke="white" stroke-width="10" fill="none" opacity="0.7"/>

    <path d="M-140 20 Q-160 -100, -20 -130 T110 -40 T20 120 T-140 20" fill="white" fill-rule="evenodd"/>
  </g>
</svg>
